<?xml version="1.0" encoding="UTF-8"?>
<svg viewBox="0 0 1801.4 885.42" xmlns="http://www.w3.org/2000/svg">
<defs>
<style>.cls-1{fill:#ffd400;}.cls-10,.cls-2{opacity:0.5;}.cls-3{fill:#3956a5;}.cls-4{fill:#6855a3;}.cls-5{opacity:0.42;}.cls-6{fill:#003f5d;}.cls-7{fill:#cd549e;}.cls-8{fill:#b086bc;}.cls-10,.cls-9{fill:#fcf8d1;stroke:#ffd400;stroke-miterlimit:10;}</style>
</defs>
<title>hero_bg</title>
<g data-name="Layer 2">
<g data-name="Layer 2">
<rect width="1801.4" height="885.42"/>
<rect class="cls-1" transform="translate(-11.76 779.96) rotate(-89.73)" x="383.02" y="392.96" width="5.86" height="5.86"/>
<path class="cls-1" d="m383.53 393.44h4.86v4.86h-4.86v-4.86m-1-1v6.86h6.86v-6.86h-6.86z"/>
</g>
<g data-name="Layer 1">
<g class="cls-2">
<rect class="cls-3" x="574.64" y="64.28" width="8.88" height="8.88"/>
<rect class="cls-4" x="280.86" y="654.1" width="35.53" height="35.53"/>
<rect class="cls-4" x="280.86" y="716.68" width="35.53" height="35.53"/>
<rect class="cls-4" x="280.86" y="781.68" width="35.53" height="35.53"/>
<g class="cls-5">
<rect class="cls-3" x="331.19" y="10.21" width="35.53" height="35.53"/>
</g>
<rect class="cls-3" x="1695" y="457.14" width="35.53" height="35.53"/>
<g class="cls-5">
<rect class="cls-3" x="3.77" y="300.69" width="35.53" height="35.53"/>
</g>
<rect class="cls-3" x="899.55" y="196.24" width="8.88" height="8.88"/>
<rect class="cls-6" x="13.05" y="95.8" width="16.96" height="16.96"/>
<rect class="cls-6" x="258.52" y="59.73" width="16.96" height="16.96"/>
<rect class="cls-6" x="213.02" y="385.63" width="16.96" height="16.96"/>
<rect class="cls-7" x="669.95" y="134.22" width="16.96" height="16.96"/>
<rect class="cls-7" x="669.95" y="156.42" width="16.96" height="16.96"/>
<rect class="cls-7" x="669.95" y="178.63" width="16.96" height="16.96"/>
<rect class="cls-7" x="137.4" y="239.12" width="16.96" height="16.96"/>
<rect class="cls-7" x="137.4" y="261.33" width="16.96" height="16.96"/>
<rect class="cls-7" x="137.4" y="283.53" width="16.96" height="16.96"/>
<rect class="cls-6" x="1221.5" y="78.13" width="16.96" height="16.96"/>
<rect class="cls-6" x="1575.5" y="384.34" width="16.96" height="16.96"/>
<rect class="cls-8" x="107.99" y="712.74" width="6.25" height="24.22"/>
<rect class="cls-8" x="99" y="721.73" width="24.22" height="6.25"/>
<rect class="cls-8" x="234.8" y="165.24" width="6.25" height="35.53"/>
<rect class="cls-8" x="220.17" y="179.88" width="35.53" height="6.25"/>
<rect class="cls-8" x="790.99" y="69.61" width="4.05" height="35.53"/>
<rect class="cls-8" x="781.51" y="84.25" width="23.03" height="6.25"/>
<rect class="cls-1" transform="translate(220.31 517.13) rotate(-89.73)" x="367.02" y="144.96" width="5.86" height="5.86"/>
<path class="cls-1" d="m367.53 145.44h4.86v4.86h-4.86v-4.86m-1-1v6.86h6.86v-6.86h-6.86z"/>
<path class="cls-9" d="M405.6,208.21,405.51,226l-17.76-.08.08-17.76,17.76.08m1.62-1.61-21-.1-.1,21,21,.1.1-21Z"/>
<path class="cls-9" d="M138.41,571.3l-.08,17.76L120.56,589l.08-17.76,17.76.08M140,569.7l-21-.1-.1,21,21,.1.1-21Z"/>
<rect class="cls-1" transform="translate(68.93 217.65) rotate(-89.73)" x="140.88" y="71.27" width="5.86" height="5.86"/>
<path class="cls-1" d="m141.39 71.75h4.86v4.86h-4.86v-4.86m-1-1v6.86h6.86v-6.86h-6.86z"/>
<rect class="cls-1" transform="translate(933.25 1047.3) rotate(-89.71)" x="989.96" y="51.75" width="5.86" height="5.86"/>
<path class="cls-1" d="m990.47 52.24h4.86v4.86h-4.86v-4.86m-1-1v6.86h6.86v-6.86h-6.86z"/>
<rect class="cls-1" transform="translate(956.57 1316.4) rotate(-89.71)" x="1136.8" y="174.58" width="5.86" height="5.86"/>
<path class="cls-1" d="m1137.4 175.07h4.86v4.86h-4.86v-4.86m-1-1v6.86h6.86v-6.86h-6.86z"/>
</g>
<g class="cls-2">
<rect class="cls-4" x="1543.4" y="659.53" width="35.53" height="35.53"/>
</g>
<g class="cls-2">
<rect class="cls-4" x="1543.4" y="722.11" width="35.53" height="35.53"/>
</g>
<g class="cls-2">
<rect class="cls-4" x="1722.5" y="747.93" width="35.53" height="35.53"/>
</g>
<g class="cls-2">
<rect class="cls-3" x="1583.7" y="25.64" width="35.53" height="35.53"/>
</g>
<g class="cls-2">
<rect class="cls-6" x="1511" y="75.16" width="16.96" height="16.96"/>
</g>
<g class="cls-2">
<rect class="cls-6" x="1515.5" y="516.06" width="16.96" height="16.96"/>
</g>
<g class="cls-2">
<rect class="cls-7" x="1334.9" y="229.55" width="16.96" height="16.96"/>
</g>
<g class="cls-2">
<rect class="cls-7" x="1334.9" y="251.76" width="16.96" height="16.96"/>
</g>
<g class="cls-2">
<rect class="cls-7" x="1334.9" y="273.96" width="16.96" height="16.96"/>
</g>
<g class="cls-2">
<rect class="cls-8" x="1370.5" y="788.17" width="6.25" height="24.22"/>
</g>
<g class="cls-2">
<rect class="cls-8" x="1361.5" y="797.16" width="24.22" height="6.25"/>
</g>
<g class="cls-2">
<rect class="cls-8" x="1487.3" y="180.67" width="6.25" height="35.53"/>
</g>
<g class="cls-2">
<rect class="cls-8" x="1472.7" y="195.31" width="35.53" height="6.25"/>
</g>
<g class="cls-2">
<rect class="cls-1" transform="translate(1451 1784.9) rotate(-89.71)" x="1619.5" y="160.39" width="5.86" height="5.86"/>
<path class="cls-1" d="m1620 160.87h4.86v4.86h-4.86v-4.86m-1-1v6.86h6.86v-6.86h-6.86z"/>
</g>
<path class="cls-10" d="M1688.1,258.64l-.08,17.76-17.76-.08.08-17.76,17.76.08m1.62-1.61-21-.1-.1,21,21,.1.1-21Z"/>
<path class="cls-10" d="M1440.91,586.74l-.08,17.76-17.76-.08.08-17.76,17.76.08m1.62-1.61-21-.1-.1,21,21,.1.1-21Z"/>
<g class="cls-2">
<rect class="cls-1" transform="translate(1299.9 1485.5) rotate(-89.72)" x="1393.4" y="86.7" width="5.86" height="5.86"/>
<path class="cls-1" d="m1393.9 87.19h4.86v4.86h-4.86v-4.86m-1-1v6.86h6.86v-6.86h-6.86z"/>
</g>
<rect class="cls-3" x="587.55" y="847.24" width="8.88" height="8.88"/>
<rect class="cls-1" transform="translate(-177.42 1283.1) rotate(-89.73)" x="552.96" y="727.75" width="5.86" height="5.86"/>
<path class="cls-1" d="m553.47 728.24h4.86v4.86h-4.86v-4.86m-1-1v6.86h6.86v-6.86h-6.86z"/>
<rect class="cls-1" transform="translate(-109.16 1547.4) rotate(-89.73)" x="719.84" y="825.58" width="5.86" height="5.86"/>
<path class="cls-1" d="m720.35 826.07h4.86v4.86h-4.86v-4.86m-1-1v6.86h6.86v-6.86h-6.86z"/>
<path class="cls-10" d="M1047.91,767.74l-.08,17.76-17.76-.08.08-17.76,17.76.08m1.62-1.61-21-.1-.1,21,21,.1.1-21Z"/>
<rect class="cls-3" x="1397.3" y="395.93" width="8.88" height="8.88"/>
</g>
</g>
</svg>
